<?xml version="1.0" encoding="UTF-8"?>
<svg width="1024px" height="129px" viewBox="0 0 1024 129" version="1.1" xmlns="http://www.w3.org/2000/svg" xmlns:xlink="http://www.w3.org/1999/xlink">
    <!-- Generator: Sketch 57.1 (83088) - https://sketch.com -->
    <title>7.9” iPad mini</title>
    <desc>Created with Sketch.</desc>
    <g id="Page-1" stroke="none" stroke-width="1" fill="none" fill-rule="evenodd">
        <g id="7.9”-iPad-mini">
            <path d="M0,-11 L1024,-11 L1024,123 C967.769243,107.640912 909.391639,100.518517 848.867188,101.632813 C758.08051,103.304256 764.165635,127.95343 687.28125,129.199219 C610.396865,130.445007 605.759984,107 517.628906,107 C429.497829,107 446.95961,130.677928 338.136719,129.199219 C229.313827,127.720509 180.124337,104.046699 122.640625,101.632813 C84.3181502,100.023555 43.4379418,104.479284 0,115 L0,-11 Z" id="Rectangle" fill="#00A7FF" transform="translate(512.000000, 59.132852) scale(-1, 1) translate(-512.000000, -59.132852) "></path>
            <path d="M0,-4 L1024,-4 L1024,114.558495 C967.769243,93.8658782 909.391639,84.2701903 848.867188,85.7714317 C758.08051,88.0232938 764.165635,121.232032 687.28125,122.910428 C610.396865,124.588824 605.759984,93.0024053 517.628906,93.0024053 C429.497829,93.0024053 446.95961,124.902627 338.136719,122.910428 C229.313827,120.918228 180.124337,89.0235544 122.640625,85.7714317 C84.3181502,83.6033499 43.4379418,89.6063561 0,103.78045 L0,-4 Z" id="Rectangle" fill="#001AB2" opacity="0.659040179"></path>
        </g>
    </g>
</svg>